<?xml version="1.0" standalone="no"?>
<!DOCTYPE svg PUBLIC "-//W3C//DTD SVG 20010904//EN"
 "http://www.w3.org/TR/2001/REC-SVG-20010904/DTD/svg10.dtd">
<svg version="1.0" xmlns="http://www.w3.org/2000/svg"
 width="205.000000pt" height="205.000000pt" viewBox="0 0 205.000000 205.000000"
 preserveAspectRatio="xMidYMid meet">
<metadata>
Created by potrace 1.14, written by Peter Selinger 2001-2017
</metadata>
<g transform="translate(0.000000,205.000000) scale(0.100000,-0.100000)"
fill="#000000" stroke="none">
<path d="M469 2043 c0 -5 0 -110 0 -235 l1 -227 -188 0 c-103 0 -208 0 -234
-1 l-48 0 0 -235 0 -236 78 3 77 3 2 135 c1 74 2 143 3 153 0 15 14 17 154 17
l155 0 0 -75 0 -75 -32 -1 c-18 0 -53 -1 -79 -1 l-48 1 0 -80 0 -79 317 2 317
3 1 303 c0 167 -3 308 -6 313 -3 6 -39 9 -80 7 l-74 -3 -1 -75 -1 -75 -76 -2
-77 -1 0 154 0 154 88 1 c48 0 119 1 157 2 l70 2 0 75 0 75 -237 3 c-131 1
-238 -1 -239 -5z m309 -699 l-3 -77 -47 1 c-109 2 -98 -7 -98 77 l0 75 75 0
76 0 -3 -76z"/>
<path d="M1095 1973 l0 -78 158 -3 157 -3 0 -154 0 -154 -75 0 c-51 0 -75 4
-76 12 -1 7 -2 41 -3 77 l-1 65 -77 3 c-58 2 -78 0 -79 -10 -5 -58 -3 -605 2
-613 5 -6 118 -9 311 -8 166 1 307 2 311 2 4 1 7 36 5 79 l-3 77 -65 1 c-36 1
-71 2 -77 3 -9 1 -13 23 -13 76 l0 75 155 0 154 0 3 -157 3 -158 75 0 75 0 3
238 c2 186 0 237 -10 237 -7 1 -113 1 -235 1 l-223 0 0 235 0 234 -238 0 -237
0 0 -77z m315 -628 l0 -75 -30 -1 c-39 -1 -96 -1 -112 0 -9 1 -12 17 -11 48 3
116 -7 103 78 103 l75 0 0 -75z"/>
<path d="M4 951 c-2 -2 -4 -109 -4 -238 l0 -233 235 0 235 0 -1 -182 c0 -101
0 -207 0 -235 l1 -53 235 0 235 0 0 80 0 80 -155 0 -155 0 0 155 0 155 75 0
c75 0 75 0 76 -27 0 -16 1 -50 2 -78 l2 -50 78 -1 77 0 -2 315 -3 316 -310 0
-310 0 0 -80 0 -80 65 -2 c36 -1 71 -2 78 -2 8 -1 12 -23 12 -76 l0 -75 -155
0 -155 0 -1 133 c-2 204 8 182 -77 182 -40 0 -75 -2 -78 -4z m761 -160 c20 -1
22 -14 16 -138 -1 -9 -23 -13 -76 -13 l-75 0 0 74 c0 83 0 83 80 79 19 0 44
-2 55 -2z"/>
<path d="M1097 945 c-2 -5 -3 -147 -3 -315 l1 -305 77 -3 c89 -3 89 -3 85 98
l-2 55 76 3 75 3 1 -155 0 -156 -156 -2 -156 -3 0 -75 0 -75 238 -3 237 -2 0
235 0 235 235 0 235 0 0 238 0 237 -72 -1 c-40 -1 -76 -2 -80 -3 -5 0 -8 -71
-8 -156 l0 -155 -155 0 -155 0 0 78 0 77 74 -1 c47 -1 76 3 79 10 2 6 3 42 3
81 l-1 70 -312 0 c-202 0 -314 -3 -316 -10z m311 -229 l3 -76 -76 0 c-41 0
-75 3 -76 8 0 4 -1 37 -2 74 -2 76 -5 74 98 72 l50 -1 3 -77z"/>
</g>
</svg>
